<svg id="Capa_1" data-name="Capa 1" xmlns="http://www.w3.org/2000/svg" viewBox="0 0 464.01 692.78"><defs><style>.cls-1{fill:#fff;}.cls-1,.cls-2{stroke:#1d1d1b;}.cls-1,.cls-2,.cls-4{stroke-miterlimit:10;}.cls-2{fill:#070304;}.cls-3{fill:#0b8537;}.cls-4{fill:#fab747;stroke:#e53012;}.cls-5{font-size:21px;font-family:Calibri-Italic, Calibri;font-style:italic;}.cls-5,.cls-8{fill:#1d1d1b;}.cls-6{letter-spacing:-0.05em;}.cls-7{letter-spacing:-0.01em;}.cls-8{font-size:31px;font-family:Calibri-Bold, Calibri;font-weight:700;}.cls-9{letter-spacing:-0.01em;}.cls-10{letter-spacing:-0.02em;}.cls-11{letter-spacing:0em;}.cls-12{letter-spacing:-0.01em;}.cls-13{letter-spacing:-0.01em;}.cls-14{letter-spacing:0em;}</style></defs><title>clases de poligonos</title><rect class="cls-1" x="0.5" y="0.5" width="463.01" height="691.78"/><rect class="cls-2" x="0.5" y="0.5" width="463.01" height="6.85"/><polygon class="cls-3" points="0.5 7.35 77.1 7.84 0.99 83.95 0.5 7.35"/><polygon class="cls-4" points="214.06 232.73 39.3 234.35 125.28 82.19 214.06 232.73"/><rect class="cls-4" x="248.59" y="292.73" width="155.61" height="155.61"/><polygon class="cls-4" points="200.69 658.98 52.2 658.98 7.28 518.07 128.01 430.99 247.55 518.07 200.69 658.98"/><text class="cls-5" transform="translate(172.1 99.88)"><tspan class="cls-6">T</tspan><tspan x="9.23" y="0">riángulo </tspan><tspan x="9.64" y="25.2">3 lados</tspan></text><text class="cls-5" transform="translate(69.21 313.31)">Cuadrilá<tspan class="cls-7" x="71" y="0">t</tspan><tspan x="77.81" y="0">ero</tspan><tspan x="22.53" y="25.2">4 lados</tspan></text><text class="cls-8" transform="translate(123 39.8)">Clases de polí<tspan class="cls-9" x="174.45" y="0">g</tspan><tspan x="188.84" y="0">onos</tspan></text><text class="cls-5" transform="translate(331.45 546.02)"><tspan class="cls-10">P<tspan class="cls-11" x="10.43" y="0">e</tspan><tspan class="cls-12" x="20.46" y="0">n</tspan><tspan class="cls-13" x="31.05" y="0">t</tspan><tspan class="cls-14" x="37.8" y="0">ágono</tspan></tspan><tspan x="15.49" y="25.2">5 lados</tspan></text></svg>